<svg width="44" height="41" viewBox="0 0 44 41" fill="none" xmlns="http://www.w3.org/2000/svg">
<g clip-path="url(#clip0_821_736)">
<path d="M30.7728 -0.409119C28.4804 -0.26162 25.801 1.10337 24.2395 2.88086C22.8152 4.49335 21.6434 6.88834 22.1003 9.21582C24.605 9.28832 27.1931 7.89083 28.6927 6.08334C30.0956 4.40085 31.1571 2.02087 30.7728 -0.409119Z" fill="#444B59"/>
<path d="M38.9162 13.6484C36.7151 11.0809 33.6218 9.59088 30.7005 9.59088C26.844 9.59088 25.2127 11.3084 22.5333 11.3084C19.7705 11.3084 17.6716 9.59588 14.3364 9.59588C11.0604 9.59588 7.57205 11.4584 5.36025 14.6434C2.25083 19.1283 2.78295 27.5608 7.82198 34.7432C9.62528 37.3132 12.0333 40.2032 15.183 40.2282C17.986 40.2532 18.7762 38.5557 22.5736 38.5382C26.371 38.5182 27.0912 40.2507 29.8889 40.2232C33.0413 40.2007 35.581 36.9982 37.3843 34.4282C38.677 32.5857 39.1581 31.6583 40.1605 29.5783C32.8693 26.9958 31.7003 17.3508 38.9162 13.6484Z" fill="#444B59"/>
</g>
<defs>
<clipPath id="clip0_821_736">
<rect width="43" height="40" fill="white" transform="translate(0.5 0.5)"/>
</clipPath>
</defs>
</svg>
