<svg width="1440" height="1024" viewBox="0 0 1440 1024" fill="none" xmlns="http://www.w3.org/2000/svg">
<circle cx="1369" cy="193" r="90" fill="url(#paint0_linear_964_693)"/>
<g opacity="0.84">
<rect width="407.484" height="294.652" transform="matrix(0.583371 -0.812206 0.892456 0.451135 -320.434 1167.76)" fill="url(#paint1_linear_964_693)"/>
<path fill-rule="evenodd" clip-rule="evenodd" d="M-583.176 529.744L-564.076 556.737C-544.737 585.458 -507.087 641.031 -440.605 615.804C-374.912 590.436 -280.938 485.855 -239.438 530.318C-197.15 574.923 -205.998 767.125 -160.1 798.892C-113.963 832.387 -12.5291 703.859 49.5535 691.328C111.398 677.07 133.891 778.809 180.578 810.717C225.927 844.071 296.257 807.734 346.005 828.392C396.54 849.19 425.944 928.569 441.983 966.812L456.685 1006.5L433.041 1074.75L406.243 1069.97C378.656 1065.06 325.06 1055.51 270.675 1045.82C217.079 1036.27 162.694 1026.58 109.097 1017.04C54.7127 1007.35 0.327936 997.66 -53.2686 988.112C-107.653 978.424 -161.25 968.876 -215.635 959.187C-269.231 949.639 -323.616 939.951 -378.001 930.262C-431.597 920.714 -485.982 911.026 -539.578 901.478C-593.963 891.789 -647.56 882.241 -675.146 877.327L-701.944 872.553L-583.176 529.744Z" fill="url(#paint2_linear_964_693)"/>
</g>
<circle cx="-16" cy="18" r="90" fill="url(#paint3_linear_964_693)"/>
<circle cx="513" cy="980" r="95" fill="url(#paint4_linear_964_693)"/>
<circle cx="1405" cy="335" r="25" fill="url(#paint5_linear_964_693)"/>
<defs>
<linearGradient id="paint0_linear_964_693" x1="1369" y1="103" x2="1369" y2="283" gradientUnits="userSpaceOnUse">
<stop stop-color="#B20AA8"/>
<stop offset="1" stop-color="#6F1FAB"/>
</linearGradient>
<linearGradient id="paint1_linear_964_693" x1="-7.44515e-06" y1="14.166" x2="392.947" y2="313.722" gradientUnits="userSpaceOnUse">
<stop stop-color="#136ACD"/>
<stop offset="0.456833" stop-color="#593BD7"/>
<stop offset="1" stop-color="#A40AE3"/>
</linearGradient>
<linearGradient id="paint2_linear_964_693" x1="-458.458" y1="633.218" x2="242.868" y2="1083.06" gradientUnits="userSpaceOnUse">
<stop stop-color="#9AB0C6"/>
<stop offset="0.479648" stop-color="#533FD2"/>
<stop offset="1" stop-color="#A40AE3"/>
</linearGradient>
<linearGradient id="paint3_linear_964_693" x1="-16" y1="-72" x2="-16" y2="108" gradientUnits="userSpaceOnUse">
<stop stop-color="#B20AA8"/>
<stop offset="1" stop-color="#6F1FAB"/>
</linearGradient>
<linearGradient id="paint4_linear_964_693" x1="418" y1="980" x2="608" y2="980" gradientUnits="userSpaceOnUse">
<stop stop-color="#29B7DF"/>
<stop offset="1" stop-color="#49269D"/>
</linearGradient>
<linearGradient id="paint5_linear_964_693" x1="1405" y1="310" x2="1405" y2="360" gradientUnits="userSpaceOnUse">
<stop stop-color="#B20AA8"/>
<stop offset="1" stop-color="#6F1FAB"/>
</linearGradient>
</defs>
</svg>
