<svg width="35" height="35" viewBox="0 0 35 35" fill="none" xmlns="http://www.w3.org/2000/svg">
<path d="M17.4671 4.37085C16.813 4.37085 16.1448 4.42893 15.4765 4.57413C11.5523 5.34369 8.42434 8.58166 7.685 12.5892C7.00253 16.3789 8.36747 19.8637 10.8414 22.1143C11.4528 22.6661 11.7798 23.4357 11.7798 24.2488V27.6029C11.7798 29.2001 13.0594 30.5069 14.6234 30.5069H15.0215C15.5192 31.3781 16.4149 31.9589 17.4671 31.9589C18.5192 31.9589 19.4291 31.3781 19.9126 30.5069H20.3107C21.8747 30.5069 23.1543 29.2001 23.1543 27.6029V24.2488C23.1543 23.4502 23.4671 22.6661 24.0642 22.1289C26.1259 20.2703 27.4197 17.555 27.4197 14.5349C27.4197 8.91562 22.9695 4.37085 17.4671 4.37085ZM18.178 20.3429H16.7561V16.5822L14.1542 13.9396L15.1637 12.9086L17.4671 15.2609L19.7704 12.9086L20.7799 13.9396L18.178 16.5967V20.3429V20.3429ZM19.5998 27.6029C19.5855 27.6029 19.5713 27.5884 19.5571 27.5884V27.6029H15.377V27.5884C15.3628 27.5884 15.3486 27.6029 15.3343 27.6029C14.9362 27.6029 14.6234 27.2835 14.6234 26.8769C14.6234 26.4703 14.9362 26.1509 15.3343 26.1509C15.3486 26.1509 15.3628 26.1654 15.377 26.1654V26.1509H19.5571V26.1654C19.5713 26.1654 19.5855 26.1509 19.5998 26.1509C19.9979 26.1509 20.3107 26.4703 20.3107 26.8769C20.3107 27.2835 19.9979 27.6029 19.5998 27.6029ZM19.5998 24.6989H15.3343C14.9362 24.6989 14.6234 24.3795 14.6234 23.9729C14.6234 23.5663 14.9362 23.2469 15.3343 23.2469H19.5998C19.9979 23.2469 20.3107 23.5663 20.3107 23.9729C20.3107 24.3795 19.9979 24.6989 19.5998 24.6989Z" fill="white"/>
</svg>
