<svg width="51" height="50" viewBox="0 0 51 50" fill="none" xmlns="http://www.w3.org/2000/svg">
<g clip-path="url(#clip0_821_726)">
<path d="M15.4216 22.9639L14.0989 27.9018L9.26434 28.0041C7.81952 25.3243 7 22.2582 7 19C7 15.8493 7.76623 12.8782 9.12444 10.2621H9.12548L13.4296 11.0512L15.315 15.3294C14.9204 16.4799 14.7053 17.7149 14.7053 19C14.7055 20.3947 14.9581 21.731 15.4216 22.9639Z" fill="#FBBB00"/>
<path d="M44.6678 15.4506C44.886 16.5999 44.9998 17.7869 44.9998 19C44.9998 20.3603 44.8568 21.6872 44.5843 22.9671C43.6594 27.3224 41.2426 31.1256 37.8947 33.8169L37.8936 33.8158L32.4724 33.5392L31.7051 28.7495C33.9266 27.4467 35.6628 25.4078 36.5773 22.9671H26.4175V15.4506H36.7255H44.6678Z" fill="#518EF8"/>
<path d="M37.8936 33.8158L37.8946 33.8169C34.6386 36.434 30.5024 38 25.9998 38C18.7642 38 12.4733 33.9557 9.26416 28.0041L15.4214 22.9639C17.026 27.2462 21.1569 30.2946 25.9998 30.2946C28.0814 30.2946 30.0316 29.7319 31.705 28.7495L37.8936 33.8158Z" fill="#28B446"/>
<path d="M38.1277 4.37416L31.9725 9.41331C30.2406 8.33076 28.1934 7.70539 26.0001 7.70539C21.0475 7.70539 16.8393 10.8936 15.3152 15.3294L9.12555 10.2621H9.12451C12.2867 4.16538 18.6569 0 26.0001 0C30.6102 0 34.8371 1.64216 38.1277 4.37416Z" fill="#F14336"/>
</g>
<defs>
<clipPath id="clip0_821_726">
<rect width="38" height="38" fill="white" transform="translate(7)"/>
</clipPath>
</defs>
</svg>
