<svg width="608" height="558" viewBox="0 0 608 558" fill="none" xmlns="http://www.w3.org/2000/svg">
<path fill-rule="evenodd" clip-rule="evenodd" d="M-583.177 63.744L-564.076 90.7371C-544.738 119.458 -507.087 175.031 -440.605 149.804C-374.912 124.436 -280.938 19.8547 -239.438 64.3185C-197.15 108.923 -205.998 301.125 -160.1 332.892C-113.963 366.387 -12.5293 237.859 49.5533 225.328C111.398 211.07 133.891 312.809 180.578 344.717C225.926 378.071 296.257 341.734 346.004 362.392C396.54 383.19 425.943 462.569 441.983 500.812L456.684 540.502L433.041 608.746L406.243 603.972C378.656 599.058 325.06 589.51 270.675 579.821C217.078 570.273 162.694 560.585 109.097 551.037C54.7124 541.348 0.327692 531.66 -53.2688 522.112C-107.654 512.424 -161.25 502.876 -215.635 493.187C-269.231 483.639 -323.616 473.951 -378.001 464.262C-431.597 454.714 -485.982 445.026 -539.579 435.478C-593.963 425.789 -647.56 416.241 -675.146 411.327L-701.944 406.553L-583.177 63.744Z" fill="url(#paint0_linear_980_693)"/>
<circle cx="513" cy="514" r="95" fill="url(#paint1_linear_980_693)"/>
<defs>
<linearGradient id="paint0_linear_980_693" x1="-458.458" y1="167.218" x2="242.868" y2="617.065" gradientUnits="userSpaceOnUse">
<stop stop-color="#9AB0C6"/>
<stop offset="0.479648" stop-color="#533FD2"/>
<stop offset="1" stop-color="#A40AE3"/>
</linearGradient>
<linearGradient id="paint1_linear_980_693" x1="418" y1="514" x2="608" y2="514" gradientUnits="userSpaceOnUse">
<stop stop-color="#29B7DF"/>
<stop offset="1" stop-color="#49269D"/>
</linearGradient>
</defs>
</svg>
