<svg width="38" height="39" viewBox="0 0 38 39" fill="none" xmlns="http://www.w3.org/2000/svg">
<path fill-rule="evenodd" clip-rule="evenodd" d="M17.5999 13.4211C17.5999 16.0217 15.5197 18.121 12.9235 18.121C10.3273 18.121 8.23155 16.0217 8.23155 13.4211C8.23155 10.8205 10.3273 8.72119 12.9235 8.72119C15.5197 8.72119 17.5999 10.8205 17.5999 13.4211ZM30.1118 13.4211C30.1118 16.0217 28.0317 18.121 25.4355 18.121C22.8392 18.121 20.7435 16.0217 20.7435 13.4211C20.7435 10.8205 22.8392 8.72119 25.4355 8.72119C28.0317 8.72119 30.1118 10.8205 30.1118 13.4211ZM12.9235 21.2543C9.27942 21.2543 1.97559 23.0872 1.97559 26.7375V29.0874C1.97559 29.9491 2.67938 30.6541 3.53958 30.6541H22.3075C23.1677 30.6541 23.8715 29.9491 23.8715 29.0874V26.7375C23.8715 23.0872 16.5676 21.2543 12.9235 21.2543ZM23.9184 21.3326C24.4658 21.2856 24.9819 21.2543 25.4354 21.2543C29.0795 21.2543 36.3834 23.0872 36.3834 26.7375V29.0874C36.3834 29.9491 35.6796 30.6541 34.8194 30.6541H26.7179C26.89 30.1684 26.9994 29.6358 26.9994 29.0874V26.7375C26.9994 24.4345 25.7639 22.6956 23.9809 21.3953C23.9762 21.3905 23.9715 21.3843 23.9663 21.3776C23.9544 21.3621 23.9402 21.3435 23.9184 21.3326Z" fill="white"/>
</svg>
