<svg width="87" height="21" viewBox="0 0 87 21" fill="none" xmlns="http://www.w3.org/2000/svg">
<path d="M0.932 19.884L1.1 18.204H1.268C1.996 18.8387 2.81733 19.3333 3.732 19.688C4.64667 20.0427 5.552 20.22 6.448 20.22C7.71733 20.22 8.744 19.8747 9.528 19.184C10.312 18.4747 10.704 17.532 10.704 16.356C10.704 15.7027 10.5547 15.096 10.256 14.536C9.976 13.976 9.5 13.4067 8.828 12.828C8.17467 12.2493 7.26933 11.624 6.112 10.952C5.30933 10.4853 4.544 10 3.816 9.496C3.088 8.97333 2.49067 8.376 2.024 7.704C1.55733 7.01333 1.324 6.192 1.324 5.24C1.324 3.82133 1.83733 2.68267 2.864 1.824C3.89067 0.946665 5.244 0.507999 6.924 0.507999C7.67067 0.507999 8.47333 0.591999 9.332 0.759999C10.1907 0.909332 10.8533 1.10533 11.32 1.348L11.18 2.916H11.012C9.948 1.75867 8.58533 1.18 6.924 1.18C5.72933 1.18 4.768 1.488 4.04 2.104C3.312 2.70133 2.948 3.51333 2.948 4.54C2.948 5.30533 3.144 5.968 3.536 6.528C3.94667 7.06933 4.46933 7.564 5.104 8.012C5.73867 8.44133 6.42 8.86133 7.148 9.272C7.988 9.75733 8.8 10.2707 9.584 10.812C10.3867 11.3533 11.04 12.0067 11.544 12.772C12.0667 13.5187 12.328 14.4613 12.328 15.6C12.328 16.6453 12.0853 17.5693 11.6 18.372C11.1147 19.156 10.424 19.772 9.528 20.22C8.65067 20.668 7.624 20.892 6.448 20.892C5.70133 20.892 4.824 20.7987 3.816 20.612C2.808 20.4253 1.84667 20.1827 0.932 19.884ZM21.7763 20.5V1.46C21.4963 1.46 20.9176 1.516 20.0403 1.628L14.5523 2.328V0.899999H30.9043V2.328L25.4163 1.628C24.5389 1.516 23.9603 1.46 23.6803 1.46V20.5H21.7763ZM35.4525 0.899999H39.2045C41.1832 0.899999 42.7138 1.32 43.7965 2.16C44.8978 2.98133 45.4485 4.13867 45.4485 5.632C45.4485 6.78933 45.1032 7.75067 44.4125 8.516C43.7405 9.28133 42.7605 9.79467 41.4725 10.056V10.224C42.7045 10.4667 43.7125 11.0453 44.4965 11.96C45.2805 12.8747 45.8685 14.004 46.2605 15.348C46.6152 16.58 46.9605 17.5413 47.2965 18.232C47.6512 18.904 48.0338 19.3893 48.4445 19.688C48.8738 19.9867 49.3778 20.2013 49.9565 20.332V20.5H48.8085C47.9872 20.5 47.3058 20.3507 46.7645 20.052C46.2418 19.7533 45.7938 19.2493 45.4205 18.54C45.0472 17.8307 44.6925 16.8507 44.3565 15.6C43.8152 13.6773 43.0965 12.3147 42.2005 11.512C41.3045 10.7093 40.2125 10.308 38.9245 10.308H38.7565V9.804H38.9245C41.9298 9.804 43.4325 8.42267 43.4325 5.66C43.4325 2.93467 42.0232 1.572 39.2045 1.572H37.3565V20.5H35.4525V0.899999ZM51.353 20.5L58.885 0.899999H60.621L68.153 20.5H66.109L62.637 11.316H56.281L53.397 20.5H51.353ZM59.081 2.356L56.477 10.644H62.385L59.249 2.356H59.081ZM69.9507 20.5L77.1747 10.728L70.5107 0.899999H72.7507L78.2667 9.048H78.4347L83.2227 0.899999H85.4627L78.7427 9.776L86.0227 20.5H83.7827L77.6507 11.456H77.4827L72.1907 20.5H69.9507Z" fill="url(#paint0_linear_25_558)"/>
<defs>
<linearGradient id="paint0_linear_25_558" x1="-29.0706" y1="-5.49999" x2="96.2566" y2="76.8434" gradientUnits="userSpaceOnUse">
<stop stop-color="#DF1CFF"/>
<stop offset="1" stop-color="#EA0070"/>
</linearGradient>
</defs>
</svg>
