<svg width="29" height="19" viewBox="0 0 29 19" fill="none" xmlns="http://www.w3.org/2000/svg">
<path d="M21.2663 2.08469L23.294 4.25109L16.4223 11.5928L11.7895 6.64316C11.2404 6.05643 10.3532 6.05643 9.80407 6.64316L1.35524 15.6849C0.806066 16.2716 0.806066 17.2194 1.35524 17.8062C1.90441 18.3929 2.79154 18.3929 3.34071 17.8062L10.7898 9.83259L15.4225 14.7822C15.9717 15.369 16.8588 15.369 17.408 14.7822L25.2795 6.38741L27.3072 8.55381C27.7437 9.02019 28.5041 8.68921 28.5041 8.02725V1.55813C28.5182 1.13689 28.2084 0.805908 27.8142 0.805908H21.7732C21.1396 0.805908 20.8298 1.61831 21.2663 2.08469Z" fill="#1B59F8"/>
</svg>
