<svg width="1054" height="953" viewBox="0 0 1054 953" fill="none" xmlns="http://www.w3.org/2000/svg">
<path opacity="0.4" d="M1359.79 698.2C1363.08 690.201 1362.62 680.824 1358.64 670.254C1354.66 659.68 1347.17 647.949 1336.46 635.287C1315.05 609.963 1280.87 580.999 1236.53 550.22C1147.84 488.667 1018.58 419.916 869.764 358.568C720.953 297.22 580.795 254.901 474.494 236.069C421.34 226.653 376.678 223.114 343.643 225.992C327.125 227.432 313.541 230.474 303.264 235.169C292.989 239.862 286.055 246.19 282.757 254.189C279.459 262.189 279.92 271.565 283.902 282.136C287.884 292.709 295.378 304.44 306.083 317.103C327.491 342.426 361.671 371.39 406.019 402.169C494.707 463.722 623.968 532.473 772.78 593.821C921.591 655.169 1061.75 697.488 1168.05 716.32C1221.2 725.737 1265.87 729.276 1298.9 726.397C1315.42 724.957 1329 721.916 1339.28 717.221C1349.55 712.527 1356.49 706.199 1359.79 698.2Z" stroke="url(#paint0_linear_121_306)"/>
<path opacity="0.4" d="M1573.73 786.397C1578.38 775.103 1577.75 761.893 1572.2 747.042C1566.65 732.188 1556.19 715.729 1541.24 697.981C1511.36 662.487 1463.64 621.925 1401.71 578.849C1277.87 492.701 1097.32 396.561 889.431 310.857C681.541 225.153 485.696 166.125 337.121 139.966C262.829 126.886 200.383 122.029 154.169 126.152C131.061 128.214 112.04 132.519 97.6317 139.144C83.2271 145.768 73.4693 154.695 68.8133 165.989C64.1574 177.282 64.7895 190.492 70.3409 205.343C75.8935 220.198 86.3552 236.657 101.296 254.404C131.178 289.899 178.904 330.461 240.83 373.537C364.675 459.685 545.22 555.825 753.11 641.528C960.999 727.232 1156.84 786.26 1305.42 812.419C1379.71 825.5 1442.16 830.356 1488.37 826.233C1511.48 824.171 1530.5 819.867 1544.91 813.241C1559.31 806.617 1569.07 797.691 1573.73 786.397Z" stroke="url(#paint1_linear_121_306)"/>
<path opacity="0.4" d="M1034.05 563.911C1035.31 560.838 1035.15 557.212 1033.59 553.076C1032.03 548.937 1029.09 544.326 1024.87 539.33C1016.42 529.34 1002.92 517.899 985.385 505.728C950.319 481.39 899.199 454.2 840.337 429.934C781.475 405.667 726.045 388.932 684.015 381.486C662.996 377.763 645.356 376.367 632.324 377.503C625.808 378.071 620.471 379.269 616.448 381.107C612.428 382.944 609.755 385.4 608.488 388.473C607.222 391.545 607.387 395.172 608.945 399.308C610.504 403.447 613.445 408.058 617.668 413.054C626.114 423.043 639.612 434.485 657.149 446.656C692.215 470.993 743.335 498.184 802.197 522.45C861.059 546.716 916.489 563.452 958.519 570.898C979.538 574.621 997.178 576.016 1010.21 574.881C1016.73 574.313 1022.06 573.114 1026.09 571.277C1030.11 569.44 1032.78 566.983 1034.05 563.911Z" stroke="url(#paint2_linear_121_306)"/>
<defs>
<linearGradient id="paint0_linear_121_306" x1="-110.239" y1="230.333" x2="1310.26" y2="-460.981" gradientUnits="userSpaceOnUse">
<stop stop-color="#DF1CFF"/>
<stop offset="1" stop-color="#EA0070"/>
</linearGradient>
<linearGradient id="paint1_linear_121_306" x1="-480.339" y1="133.574" x2="1512.03" y2="-829.878" gradientUnits="userSpaceOnUse">
<stop stop-color="#DF1CFF"/>
<stop offset="1" stop-color="#EA0070"/>
</linearGradient>
<linearGradient id="paint2_linear_121_306" x1="452.724" y1="378.919" x2="1014.73" y2="105.408" gradientUnits="userSpaceOnUse">
<stop stop-color="#DF1CFF"/>
<stop offset="1" stop-color="#EA0070"/>
</linearGradient>
</defs>
</svg>
