<svg width="416" height="497" viewBox="0 0 416 497" fill="none" xmlns="http://www.w3.org/2000/svg">
<g filter="url(#filter0_d_48_985)">
<path d="M51.9027 10L13 48.4416V479.5H353.5L403 417.48V10H51.9027Z" fill="url(#paint0_linear_48_985)" fill-opacity="0.04" shape-rendering="crispEdges"/>
<path d="M51.9027 10L13 48.4416V479.5H353.5L403 417.48V10H51.9027Z" stroke="url(#paint1_linear_48_985)" stroke-width="2" shape-rendering="crispEdges"/>
</g>
<path d="M251.426 482.706L250.599 483.462L250.262 483.093L248.595 484.615L248.933 484.984L247.266 486.507L246.929 486.138L245.262 487.661L245.6 488.03L245.593 488.036L245.904 488.388L247.597 486.896L247.266 486.52L248.959 485.028L249.29 485.403L250.983 483.91L250.652 483.535L251.499 482.789L251.426 482.706ZM242.518 491.374L244.211 489.881L243.88 489.506L243.886 489.501L243.596 489.184L241.929 490.706L242.267 491.075L242.26 491.081L242.518 491.374ZM241.24 491.631L241.34 491.745L241.345 491.74L241.243 491.628L241.24 491.631Z" stroke="url(#paint2_linear_48_985)" stroke-dasharray="2 2"/>
<mask id="path-3-inside-1_48_985" fill="white">
<path d="M389.565 121.749L292 121.749L292 26L389.565 26L389.565 121.749Z"/>
</mask>
<path d="M389.565 26L393.565 26L393.565 25.5L389.565 25.5L389.565 26ZM393.565 121.749L393.565 120.751L385.565 120.751L385.565 121.749L393.565 121.749ZM393.565 118.757L393.565 116.762L385.565 116.762L385.565 118.757L393.565 118.757ZM393.565 114.767L393.565 112.772L385.565 112.772L385.565 114.767L393.565 114.767ZM393.565 110.778L393.565 108.783L385.565 108.783L385.565 110.778L393.565 110.778ZM393.565 106.788L393.565 104.793L385.565 104.793L385.565 106.788L393.565 106.788ZM393.565 102.799L393.565 100.804L385.565 100.804L385.565 102.799L393.565 102.799ZM393.565 98.809L393.565 96.8142L385.565 96.8142L385.565 98.809L393.565 98.809ZM393.565 94.8195L393.565 92.8247L385.565 92.8247L385.565 94.8195L393.565 94.8195ZM393.565 90.8299L393.565 88.8352L385.565 88.8352L385.565 90.8299L393.565 90.8299ZM393.565 86.8404L393.565 84.8456L385.565 84.8456L385.565 86.8404L393.565 86.8404ZM393.565 82.8509L393.565 80.8561L385.565 80.8561L385.565 82.8509L393.565 82.8509ZM393.565 78.8613L393.565 76.8666L385.565 76.8666L385.565 78.8613L393.565 78.8613ZM393.565 74.8718L393.565 72.877L385.565 72.877L385.565 74.8718L393.565 74.8718ZM393.565 70.8823L393.565 68.8875L385.565 68.8875L385.565 70.8823L393.565 70.8823ZM393.565 66.8927L393.565 64.898L385.565 64.898L385.565 66.8927L393.565 66.8927ZM393.565 62.9032L393.565 60.9084L385.565 60.9084L385.565 62.9032L393.565 62.9032ZM393.565 58.9137L393.565 56.9189L385.565 56.9189L385.565 58.9137L393.565 58.9137ZM393.565 54.9241L393.565 52.9294L385.565 52.9294L385.565 54.9241L393.565 54.9241ZM393.565 50.9346L393.565 48.9398L385.565 48.9398L385.565 50.9346L393.565 50.9346ZM393.565 46.9451L393.565 44.9503L385.565 44.9503L385.565 46.9451L393.565 46.9451ZM393.565 42.9555L393.565 40.9608L385.565 40.9608L385.565 42.9555L393.565 42.9555ZM393.565 38.966L393.565 36.9712L385.565 36.9712L385.565 38.966L393.565 38.966ZM393.565 34.9765L393.565 32.9817L385.565 32.9817L385.565 34.9765L393.565 34.9765ZM393.565 30.9869L393.565 28.9922L385.565 28.9922L385.565 30.9869L393.565 30.9869ZM393.565 26.9974L393.565 26L385.565 26L385.565 26.9974L393.565 26.9974ZM389.565 25.5L388.549 25.5L388.549 26.5L389.565 26.5L389.565 25.5ZM386.517 25.5L384.484 25.5L384.484 26.5L386.517 26.5L386.517 25.5ZM382.451 25.5L380.419 25.5L380.419 26.5L382.451 26.5L382.451 25.5ZM378.386 25.5L376.353 25.5L376.353 26.5L378.386 26.5L378.386 25.5ZM374.321 25.5L372.288 25.5L372.288 26.5L374.321 26.5L374.321 25.5ZM370.256 25.5L368.223 25.5L368.223 26.5L370.256 26.5L370.256 25.5ZM366.19 25.5L364.158 25.5L364.158 26.5L366.19 26.5L366.19 25.5ZM362.125 25.5L360.093 25.5L360.093 26.5L362.125 26.5L362.125 25.5ZM358.06 25.5L356.027 25.5L356.027 26.5L358.06 26.5L358.06 25.5ZM353.995 25.5L351.962 25.5L351.962 26.5L353.995 26.5L353.995 25.5ZM349.93 25.5L347.897 25.5L347.897 26.5L349.93 26.5L349.93 25.5ZM345.864 25.5L343.832 25.5L343.832 26.5L345.864 26.5L345.864 25.5ZM341.799 25.5L339.767 25.5L339.767 26.5L341.799 26.5L341.799 25.5ZM337.734 25.5L335.701 25.5L335.701 26.5L337.734 26.5L337.734 25.5ZM333.669 25.5L331.636 25.5L331.636 26.5L333.669 26.5L333.669 25.5ZM329.603 25.5L327.571 25.5L327.571 26.5L329.603 26.5L329.603 25.5ZM325.538 25.5L323.506 25.5L323.506 26.5L325.538 26.5L325.538 25.5ZM321.473 25.5L319.44 25.5L319.44 26.5L321.473 26.5L321.473 25.5ZM317.408 25.5L315.375 25.5L315.375 26.5L317.408 26.5L317.408 25.5ZM313.343 25.5L311.31 25.5L311.31 26.5L313.343 26.5L313.343 25.5ZM309.277 25.5L307.245 25.5L307.245 26.5L309.277 26.5L309.277 25.5ZM305.212 25.5L303.18 25.5L303.18 26.5L305.212 26.5L305.212 25.5ZM301.147 25.5L299.114 25.5L299.114 26.5L301.147 26.5L301.147 25.5ZM297.082 25.5L295.049 25.5L295.049 26.5L297.082 26.5L297.082 25.5ZM293.017 25.5L292 25.5L292 26.5L293.017 26.5L293.017 25.5ZM389.565 26L397.565 26L397.565 25L389.565 25L389.565 26ZM397.565 121.749L397.565 120.751L381.565 120.751L381.565 121.749L397.565 121.749ZM397.565 118.757L397.565 116.762L381.565 116.762L381.565 118.757L397.565 118.757ZM397.565 114.767L397.565 112.772L381.565 112.772L381.565 114.767L397.565 114.767ZM397.565 110.778L397.565 108.783L381.565 108.783L381.565 110.778L397.565 110.778ZM397.565 106.788L397.565 104.793L381.565 104.793L381.565 106.788L397.565 106.788ZM397.565 102.799L397.565 100.804L381.565 100.804L381.565 102.799L397.565 102.799ZM397.565 98.809L397.565 96.8142L381.565 96.8142L381.565 98.809L397.565 98.809ZM397.565 94.8195L397.565 92.8247L381.565 92.8247L381.565 94.8195L397.565 94.8195ZM397.565 90.8299L397.565 88.8352L381.565 88.8352L381.565 90.8299L397.565 90.8299ZM397.565 86.8404L397.565 84.8456L381.565 84.8456L381.565 86.8404L397.565 86.8404ZM397.565 82.8509L397.565 80.8561L381.565 80.8561L381.565 82.8509L397.565 82.8509ZM397.565 78.8613L397.565 76.8666L381.565 76.8666L381.565 78.8613L397.565 78.8613ZM397.565 74.8718L397.565 72.877L381.565 72.877L381.565 74.8718L397.565 74.8718ZM397.565 70.8823L397.565 68.8875L381.565 68.8875L381.565 70.8823L397.565 70.8823ZM397.565 66.8927L397.565 64.898L381.565 64.898L381.565 66.8927L397.565 66.8927ZM397.565 62.9032L397.565 60.9084L381.565 60.9084L381.565 62.9032L397.565 62.9032ZM397.565 58.9137L397.565 56.9189L381.565 56.9189L381.565 58.9137L397.565 58.9137ZM397.565 54.9241L397.565 52.9294L381.565 52.9294L381.565 54.9241L397.565 54.9241ZM397.565 50.9346L397.565 48.9398L381.565 48.9398L381.565 50.9346L397.565 50.9346ZM397.565 46.9451L397.565 44.9503L381.565 44.9503L381.565 46.9451L397.565 46.9451ZM397.565 42.9555L397.565 40.9608L381.565 40.9608L381.565 42.9555L397.565 42.9555ZM397.565 38.966L397.565 36.9712L381.565 36.9712L381.565 38.966L397.565 38.966ZM397.565 34.9765L397.565 32.9817L381.565 32.9817L381.565 34.9765L397.565 34.9765ZM397.565 30.9869L397.565 28.9922L381.565 28.9922L381.565 30.9869L397.565 30.9869ZM397.565 26.9974L397.565 26L381.565 26L381.565 26.9974L397.565 26.9974ZM389.565 25L388.549 25L388.549 27L389.565 27L389.565 25ZM386.517 25L384.484 25L384.484 27L386.517 27L386.517 25ZM382.451 25L380.419 25L380.419 27L382.451 27L382.451 25ZM378.386 25L376.353 25L376.353 27L378.386 27L378.386 25ZM374.321 25L372.288 25L372.288 27L374.321 27L374.321 25ZM370.256 25L368.223 25L368.223 27L370.256 27L370.256 25ZM366.19 25L364.158 25L364.158 27L366.19 27L366.19 25ZM362.125 25L360.093 25L360.093 27L362.125 27L362.125 25ZM358.06 25L356.027 25L356.027 27L358.06 27L358.06 25ZM353.995 25L351.962 25L351.962 27L353.995 27L353.995 25ZM349.93 25L347.897 25L347.897 27L349.93 27L349.93 25ZM345.864 25L343.832 25L343.832 27L345.864 27L345.864 25ZM341.799 25L339.767 25L339.767 27L341.799 27L341.799 25ZM337.734 25L335.701 25L335.701 27L337.734 27L337.734 25ZM333.669 25L331.636 25L331.636 27L333.669 27L333.669 25ZM329.603 25L327.571 25L327.571 27L329.603 27L329.603 25ZM325.538 25L323.506 25L323.506 27L325.538 27L325.538 25ZM321.473 25L319.44 25L319.44 27L321.473 27L321.473 25ZM317.408 25L315.375 25L315.375 27L317.408 27L317.408 25ZM313.343 25L311.31 25L311.31 27L313.343 27L313.343 25ZM309.277 25L307.245 25L307.245 27L309.277 27L309.277 25ZM305.212 25L303.18 25L303.18 27L305.212 27L305.212 25ZM301.147 25L299.114 25L299.114 27L301.147 27L301.147 25ZM297.082 25L295.049 25L295.049 27L297.082 27L297.082 25ZM293.017 25L292 25L292 27L293.017 27L293.017 25Z" fill="url(#paint3_linear_48_985)" mask="url(#path-3-inside-1_48_985)"/>
<path d="M239.065 488.502L238.575 488.505L238.573 488.005L236.588 488.014L236.591 488.514L234.606 488.523L234.603 488.023L232.619 488.032L232.621 488.532L230.636 488.541L230.634 488.041L228.649 488.051L228.652 488.551L226.667 488.56L226.665 488.06L224.68 488.069L224.682 488.569L222.697 488.578L222.695 488.078L220.71 488.088L220.713 488.588L218.728 488.597L218.726 488.097L216.741 488.106L216.743 488.606L214.758 488.615L214.756 488.115L212.771 488.124L212.774 488.624L210.789 488.634L210.787 488.134L208.802 488.143L208.804 488.643L206.82 488.652L206.817 488.152L204.832 488.161L204.835 488.661L202.85 488.671L202.848 488.171L200.863 488.18L200.865 488.68L198.881 488.689L198.878 488.189L196.894 488.198L196.896 488.698L194.911 488.707L194.909 488.207L192.924 488.217L192.926 488.717L190.942 488.726L190.939 488.226L188.955 488.235L188.957 488.735L186.972 488.744L186.97 488.244L184.985 488.254L184.987 488.754L183.003 488.763L183 488.263L181.016 488.272L181.018 488.772L179.033 488.781L179.031 488.281L177.046 488.29L177.048 488.79L175.064 488.8L175.061 488.3L173.077 488.309L173.079 488.809L171.094 488.818L171.092 488.318L169.107 488.327L169.11 488.827L167.125 488.837L167.122 488.337L165.138 488.346L165.14 488.846L163.155 488.855L163.153 488.355L161.168 488.364L161.171 488.864L159.186 488.873L159.184 488.373L157.199 488.383L157.201 488.883L155.216 488.892L155.214 488.392L153.229 488.401L153.232 488.901L151.247 488.91L151.245 488.41L149.26 488.42L149.262 488.92L147.277 488.929L147.275 488.429L145.29 488.438L145.293 488.938L143.308 488.947L143.306 488.447L141.321 488.456L141.323 488.956L139.339 488.966L139.336 488.466L137.351 488.475L137.354 488.975L135.369 488.984L135.367 488.484L133.382 488.493L133.384 488.993L131.4 489.003L131.397 488.503L129.413 488.512L129.415 489.012L127.43 489.021L127.428 488.521L125.443 488.53L125.445 489.03L123.461 489.039L123.458 488.539L121.474 488.549L121.476 489.049L119.491 489.058L119.489 488.558L117.504 488.567L117.506 489.067L115.522 489.076L115.519 488.576L113.535 488.586L113.537 489.086L111.552 489.095L111.55 488.595L109.565 488.604L109.568 489.104L107.583 489.113L107.58 488.613L105.596 488.622L105.598 489.122L103.613 489.132L103.611 488.632L101.626 488.641L101.629 489.141L99.6438 489.15L99.6415 488.65L97.6568 488.659L97.6591 489.159L95.6743 489.169L95.672 488.669L93.6873 488.678L93.6896 489.178L91.7049 489.187L91.7026 488.687L89.7178 488.696L89.7201 489.196L87.7354 489.205L87.7331 488.705L85.7483 488.715L85.7507 489.215L83.7659 489.224L83.7636 488.724L81.7789 488.733L81.7812 489.233L79.7965 489.242L79.7941 488.742L77.8094 488.752L77.8117 489.251L75.827 489.261L75.8247 488.761L73.8399 488.77L73.8422 489.27L71.8575 489.279L71.8552 488.779L69.8704 488.788L69.8728 489.288L67.888 489.298L67.8857 488.798L65.901 488.807L65.9033 489.307L63.9186 489.316L63.9162 488.816L61.9315 488.825L61.9338 489.325L59.9491 489.334L59.9468 488.834L57.962 488.844L57.9643 489.344L55.9796 489.353L55.9773 488.853L53.9926 488.862L53.9949 489.362L53.5002 489.364L53.5002 489.65L53.0002 489.65L53.0002 491.217L53.5002 491.217L53.5002 491.5L53.9925 491.5L53.9925 492L55.9772 492L55.9772 491.5L57.962 491.5L57.962 492L59.9467 492L59.9467 491.5L61.9315 491.5L61.9315 492L63.9162 492L63.9162 491.5L65.901 491.5L65.901 492L67.8857 492L67.8857 491.5L69.8704 491.5L69.8704 492L71.8552 492L71.8552 491.5L73.8399 491.5L73.8399 492L75.8247 492L75.8247 491.5L77.8094 491.5L77.8094 492L79.7941 492L79.7941 491.5L81.7789 491.5L81.7789 492L83.7636 492L83.7636 491.5L85.7484 491.5L85.7484 492L87.7331 492L87.7331 491.5L89.7178 491.5L89.7178 492L91.7026 492L91.7026 491.5L93.6873 491.5L93.6873 492L95.6721 492L95.6721 491.5L97.6568 491.5L97.6568 492L99.6416 492L99.6416 491.5L101.626 491.5L101.626 492L103.611 492L103.611 491.5L105.596 491.5L105.596 492L107.581 492L107.581 491.5L109.565 491.5L109.565 492L111.55 492L111.55 491.5L113.535 491.5L113.535 492L115.519 492L115.519 491.5L117.504 491.5L117.504 492L119.489 492L119.489 491.5L121.474 491.5L121.474 492L123.458 492L123.458 491.5L125.443 491.5L125.443 492L127.428 492L127.428 491.5L129.413 491.5L129.413 492L131.397 492L131.397 491.5L133.382 491.5L133.382 492L135.367 492L135.367 491.5L137.352 491.5L137.352 492L139.336 492L139.336 491.5L141.321 491.5L141.321 492L143.306 492L143.306 491.5L145.29 491.5L145.29 492L147.275 492L147.275 491.5L149.26 491.5L149.26 492L151.245 492L151.245 491.5L153.229 491.5L153.229 492L155.214 492L155.214 491.5L157.199 491.5L157.199 492L159.184 492L159.184 491.5L161.168 491.5L161.168 492L163.153 492L163.153 491.5L165.138 491.5L165.138 492L167.123 492L167.123 491.5L169.107 491.5L169.107 492L171.092 492L171.092 491.5L173.077 491.5L173.077 492L175.061 492L175.061 491.5L177.046 491.5L177.046 492L179.031 492L179.031 491.5L181.016 491.5L181.016 492L183 492L183 491.5L184.985 491.5L184.985 492L186.97 492L186.97 491.5L188.955 491.5L188.955 492L190.939 492L190.939 491.5L192.924 491.5L192.924 492L194.909 492L194.909 491.5L196.894 491.5L196.894 492L198.878 492L198.878 491.5L200.863 491.5L200.863 492L202.848 492L202.848 491.5L204.833 491.5L204.833 492L206.817 492L206.817 491.5L208.802 491.5L208.802 492L210.787 492L210.787 491.5L212.771 491.5L212.771 492L214.756 492L214.756 491.5L216.741 491.5L216.741 492L218.726 492L218.726 491.5L220.71 491.5L220.71 492L222.695 492L222.695 491.5L224.68 491.5L224.68 492L226.665 492L226.665 491.5L228.649 491.5L228.649 492L230.634 492L230.634 491.5L232.619 491.5L232.619 492L234.604 492L234.604 491.5L236.588 491.5L236.588 492L238.573 492L238.573 491.5L239.065 491.5L239.065 491L239.565 491L239.565 489L239.065 489L239.065 488.502Z" stroke="url(#paint4_linear_48_985)" stroke-dasharray="2 2"/>
<path d="M251.426 482.706L250.599 483.462L250.262 483.092L248.595 484.615L248.933 484.984L247.266 486.507L246.929 486.138L245.262 487.661L245.6 488.03L245.593 488.036L245.904 488.388L247.597 486.895L247.266 486.52L248.959 485.028L249.29 485.403L250.983 483.91L250.652 483.535L251.499 482.789L251.426 482.706ZM242.518 491.373L244.211 489.881L243.88 489.506L243.886 489.501L243.596 489.183L241.929 490.706L242.267 491.075L242.26 491.081L242.518 491.373ZM241.24 491.631L241.34 491.745L241.345 491.74L241.243 491.628L241.24 491.631Z" stroke="url(#paint5_linear_48_985)" stroke-dasharray="2 2"/>
<path d="M326.065 3.61745L325.575 3.61518L325.573 4.11517L323.588 4.10595L323.591 3.60595L321.606 3.59673L321.603 4.09673L319.619 4.08751L319.621 3.58751L317.636 3.57829L317.634 4.07829L315.649 4.06906L315.652 3.56907L313.667 3.55985L313.665 4.05984L311.68 4.05062L311.682 3.55063L309.697 3.54141L309.695 4.0414L307.71 4.03218L307.713 3.53218L305.728 3.52296L305.726 4.02296L303.741 4.01374L303.743 3.51374L301.758 3.50452L301.756 4.00451L299.771 3.99529L299.774 3.4953L297.789 3.48608L297.787 3.98607L295.802 3.97685L295.804 3.47686L293.82 3.46763L293.817 3.96763L291.832 3.95841L291.835 3.45841L289.85 3.44919L289.848 3.94919L287.863 3.93997L287.865 3.43997L285.881 3.43075L285.878 3.93074L283.894 3.92152L283.896 3.42153L281.911 3.41231L281.909 3.9123L279.924 3.90308L279.926 3.40309L277.942 3.39386L277.939 3.89386L275.955 3.88464L275.957 3.38464L273.972 3.37542L273.97 3.87542L271.985 3.8662L271.987 3.3662L270.003 3.35698L270 3.85697L268.016 3.84775L268.018 3.34776L266.033 3.33854L266.031 3.83853L264.046 3.82931L264.048 3.32932L262.064 3.32009L262.061 3.82009L260.077 3.81087L260.079 3.31087L258.094 3.30165L258.092 3.80165L256.107 3.79242L256.11 3.29243L254.125 3.28321L254.122 3.7832L252.138 3.77398L252.14 3.27399L250.155 3.26477L250.153 3.76476L248.168 3.75554L248.171 3.25555L246.186 3.24632L246.184 3.74632L244.199 3.7371L244.201 3.2371L242.216 3.22788L242.214 3.72788L240.229 3.71865L240.232 3.21866L238.247 3.20944L238.245 3.70943L236.26 3.70021L236.262 3.20022L234.277 3.191L234.275 3.69099L232.29 3.68177L232.293 3.18177L230.308 3.17255L230.306 3.67255L228.321 3.66333L228.323 3.16333L226.339 3.15411L226.336 3.65411L224.351 3.64488L224.354 3.14489L222.369 3.13567L222.367 3.63566L220.382 3.62644L220.384 3.12645L218.4 3.11723L218.397 3.61722L216.413 3.608L216.415 3.108L214.43 3.09878L214.428 3.59878L212.443 3.58956L212.445 3.08956L210.461 3.08034L210.458 3.58034L208.474 3.57111L208.476 3.07112L206.491 3.0619L206.489 3.56189L204.504 3.55267L204.506 3.05268L202.522 3.04346L202.519 3.54345L200.535 3.53423L200.537 3.03423L198.552 3.02501L198.55 3.52501L196.565 3.51579L196.568 3.01579L194.583 3.00657L194.58 3.50656L192.596 3.49734L192.598 2.99735L190.613 2.98813L190.611 3.48812L188.626 3.4789L188.629 2.97891L186.644 2.96968L186.641 3.46968L184.657 3.46046L184.659 2.96046L182.674 2.95124L182.672 3.45124L180.687 3.44202L180.69 2.94202L178.705 2.9328L178.703 3.43279L176.718 3.42357L176.72 2.92358L174.735 2.91436L174.733 3.41435L172.748 3.40513L172.751 2.90514L170.766 2.89591L170.764 3.39591L168.779 3.38669L168.781 2.88669L166.796 2.87747L166.794 3.37747L164.809 3.36825L164.812 2.86825L162.827 2.85903L162.825 3.35902L160.84 3.3498L160.842 2.84981L158.858 2.84059L158.855 3.34058L156.87 3.33136L156.873 2.83137L154.888 2.82214L154.886 3.32214L152.901 3.31292L152.903 2.81292L150.919 2.8037L150.916 3.3037L148.932 3.29447L148.934 2.79448L146.949 2.78526L146.947 3.28525L144.962 3.27603L144.964 2.77604L142.98 2.76682L142.977 3.26681L140.993 3.25759L140.995 2.75759L140.5 2.7553L140.5 2.46968L140 2.46968L140 0.903081L140.5 0.903084L140.5 0.619782L140.993 0.619782L140.993 0.119782L142.977 0.119782L142.977 0.619782L144.962 0.619782L144.962 0.119782L146.947 0.119782L146.947 0.619782L148.931 0.619782L148.931 0.119782L150.916 0.119782L150.916 0.619782L152.901 0.619782L152.901 0.119782L154.886 0.119782L154.886 0.619782L156.87 0.619782L156.87 0.119782L158.855 0.119782L158.855 0.619782L160.84 0.619782L160.84 0.119782L162.825 0.119782L162.825 0.619782L164.809 0.619782L164.809 0.119782L166.794 0.119782L166.794 0.619782L168.779 0.619782L168.779 0.119782L170.764 0.119782L170.764 0.619782L172.748 0.619782L172.748 0.119782L174.733 0.119782L174.733 0.619782L176.718 0.619782L176.718 0.119782L178.703 0.119782L178.703 0.619782L180.687 0.619782L180.687 0.119782L182.672 0.119782L182.672 0.619782L184.657 0.619782L184.657 0.119782L186.642 0.119782L186.642 0.619782L188.626 0.619782L188.626 0.119782L190.611 0.119782L190.611 0.619782L192.596 0.619782L192.596 0.119782L194.581 0.119782L194.581 0.619782L196.565 0.619782L196.565 0.119782L198.55 0.119782L198.55 0.619782L200.535 0.619782L200.535 0.119782L202.519 0.119782L202.519 0.619782L204.504 0.619782L204.504 0.119782L206.489 0.119782L206.489 0.619782L208.474 0.619782L208.474 0.119782L210.458 0.119782L210.458 0.619782L212.443 0.619782L212.443 0.119782L214.428 0.119782L214.428 0.619782L216.413 0.619782L216.413 0.119782L218.397 0.119782L218.397 0.619782L220.382 0.619782L220.382 0.119782L222.367 0.119782L222.367 0.619782L224.352 0.619782L224.352 0.119782L226.336 0.119782L226.336 0.619782L228.321 0.619782L228.321 0.119782L230.306 0.119782L230.306 0.619782L232.29 0.619782L232.29 0.119782L234.275 0.119782L234.275 0.619782L236.26 0.619782L236.26 0.119782L238.245 0.119782L238.245 0.619782L240.229 0.619782L240.229 0.119782L242.214 0.119782L242.214 0.619782L244.199 0.619782L244.199 0.119782L246.184 0.119782L246.184 0.619782L248.168 0.619782L248.168 0.119782L250.153 0.119782L250.153 0.619782L252.138 0.619782L252.138 0.119782L254.123 0.119782L254.123 0.619782L256.107 0.619782L256.107 0.119782L258.092 0.119782L258.092 0.619782L260.077 0.619782L260.077 0.119782L262.061 0.119782L262.061 0.619782L264.046 0.619782L264.046 0.119782L266.031 0.119782L266.031 0.619782L268.016 0.619782L268.016 0.119782L270 0.119782L270 0.619782L271.985 0.619782L271.985 0.119782L273.97 0.119782L273.97 0.619782L275.955 0.619782L275.955 0.119782L277.939 0.119782L277.939 0.619782L279.924 0.619782L279.924 0.119782L281.909 0.119782L281.909 0.619782L283.894 0.619782L283.894 0.119782L285.878 0.119782L285.878 0.619782L287.863 0.619782L287.863 0.119782L289.848 0.119782L289.848 0.619782L291.833 0.619782L291.833 0.119782L293.817 0.119782L293.817 0.619782L295.802 0.619782L295.802 0.119782L297.787 0.119782L297.787 0.619782L299.771 0.619782L299.771 0.119782L301.756 0.119782L301.756 0.619782L303.741 0.619782L303.741 0.119782L305.726 0.119782L305.726 0.619782L307.71 0.619782L307.71 0.119782L309.695 0.119782L309.695 0.619782L311.68 0.619782L311.68 0.119782L313.665 0.119782L313.665 0.619782L315.649 0.619782L315.649 0.119782L317.634 0.119782L317.634 0.619782L319.619 0.619782L319.619 0.119782L321.604 0.119782L321.604 0.619782L323.588 0.619782L323.588 0.119782L325.573 0.119782L325.573 0.619782L326.065 0.619782L326.065 1.11978L326.565 1.11978L326.565 3.11978L326.065 3.11978L326.065 3.61745Z" stroke="url(#paint6_linear_48_985)" stroke-dasharray="2 2"/>
<path d="M338.426 9.41356L337.599 8.65817L337.262 9.02729L335.595 7.50455L335.933 7.13543L334.266 5.61268L333.929 5.9818L332.262 4.45905L332.6 4.08993L332.593 4.08394L332.904 3.73163L334.597 5.2243L334.266 5.59935L335.959 7.09202L336.29 6.71697L337.983 8.20965L337.652 8.5847L338.499 9.33103L338.426 9.41356ZM329.518 0.746282L331.211 2.23895L330.88 2.61401L330.886 2.61905L330.596 2.9363L328.929 1.41356L329.267 1.04444L329.26 1.03845L329.518 0.746282ZM328.24 0.489123L328.34 0.374995L328.345 0.379336L328.243 0.491677L328.24 0.489123Z" stroke="url(#paint7_linear_48_985)" stroke-dasharray="2 2"/>
<path d="M11.7331 169.375L10.9699 170.075L10.6321 169.706L9.09158 171.118L9.42938 171.486L7.88887 172.898L7.55108 172.529L6.01057 173.941L6.34837 174.309L6.34129 174.316L6.6519 174.668L8.21892 173.287L7.88826 172.912L9.45528 171.53L9.78594 171.905L11.353 170.524L11.0223 170.149L11.8058 169.458L11.7331 169.375ZM3.51786 177.431L5.08488 176.05L4.75422 175.675L4.7604 175.669L4.47006 175.352L2.92956 176.764L3.26735 177.133L3.26028 177.139L3.51786 177.431ZM2.30306 177.633L2.40369 177.747L2.409 177.742L2.30619 177.63L2.30306 177.633Z" stroke="url(#paint8_linear_48_985)" stroke-dasharray="2 2"/>
<path d="M2.28835 178.534L2.29436 179.024L1.7944 179.03L1.81874 181.015L2.3187 181.009L2.34304 182.994L1.84308 183L1.86742 184.984L2.36738 184.978L2.39172 186.963L1.89176 186.969L1.9161 188.953L2.41606 188.947L2.4404 190.932L1.94044 190.938L1.96478 192.923L2.46474 192.917L2.48908 194.901L1.98912 194.907L2.01346 196.892L2.51342 196.886L2.53776 198.87L2.0378 198.876L2.06214 200.861L2.5621 200.855L2.58644 202.84L2.08648 202.846L2.11082 204.83L2.61078 204.824L2.63512 206.809L2.13516 206.815L2.1595 208.8L2.65946 208.793L2.6838 210.778L2.18384 210.784L2.20818 212.769L2.70814 212.763L2.73248 214.747L2.23252 214.753L2.25685 216.738L2.75682 216.732L2.78116 218.716L2.28119 218.723L2.30553 220.707L2.8055 220.701L2.82984 222.686L2.32987 222.692L2.35421 224.676L2.85418 224.67L2.87852 226.655L2.37855 226.661L2.40289 228.646L2.90286 228.639L2.9272 230.624L2.42723 230.63L2.45157 232.615L2.95154 232.609L2.97588 234.593L2.47591 234.599L2.50025 236.584L3.00022 236.578L3.02456 238.563L2.52459 238.569L2.54893 240.553L3.0489 240.547L3.07324 242.532L2.57327 242.538L2.59761 244.522L3.09758 244.516L3.12192 246.501L2.62195 246.507L2.64629 248.492L3.14626 248.486L3.17059 250.47L2.67063 250.476L2.69497 252.461L3.19493 252.455L3.21927 254.439L2.71931 254.446L2.74365 256.43L3.24361 256.424L3.26795 258.409L2.76799 258.415L2.79233 260.399L3.29229 260.393L3.31663 262.378L2.81667 262.384L2.84101 264.369L3.34097 264.362L3.36531 266.347L2.86535 266.353L2.88969 268.338L3.38965 268.332L3.41399 270.316L2.91403 270.322L2.93837 272.307L3.43833 272.301L3.46267 274.285L2.96271 274.292L2.98705 276.276L3.48701 276.27L3.51135 278.255L3.01139 278.261L3.03573 280.245L3.53569 280.239L3.56003 282.224L3.06007 282.23L3.08441 284.215L3.58437 284.208L3.60871 286.193L3.10875 286.199L3.13309 288.184L3.63305 288.178L3.65739 290.162L3.15743 290.168L3.18177 292.153L3.68173 292.147L3.70607 294.132L3.20611 294.138L3.23045 296.122L3.73041 296.116L3.75475 298.101L3.25479 298.107L3.27913 300.091L3.77909 300.085L3.80343 302.07L3.30347 302.076L3.32781 304.061L3.82777 304.055L3.85211 306.039L3.35215 306.045L3.37649 308.03L3.87645 308.024L3.90079 310.008L3.40083 310.015L3.42517 311.999L3.92513 311.993L3.94947 313.978L3.44951 313.984L3.47385 315.968L3.97381 315.962L3.99815 317.947L3.49819 317.953L3.52253 319.938L4.02249 319.931L4.04683 321.916L3.54687 321.922L3.57121 323.907L4.07117 323.901L4.09551 325.885L3.59555 325.891L3.61989 327.876L4.11985 327.87L4.14419 329.854L3.64423 329.861L3.66857 331.845L4.16853 331.839L4.19287 333.824L3.69291 333.83L3.71725 335.814L4.21721 335.808L4.24155 337.793L3.74159 337.799L3.76593 339.784L4.26589 339.778L4.29023 341.762L3.79027 341.768L3.81461 343.753L4.31457 343.747L4.33891 345.731L3.83895 345.737L3.86329 347.722L4.36325 347.716L4.38759 349.701L3.88763 349.707L3.91197 351.691L4.41193 351.685L4.43627 353.67L3.93631 353.676L3.96065 355.661L4.46061 355.654L4.48495 357.639L3.98498 357.645L4.00932 359.63L4.50929 359.624L4.53363 361.608L4.03366 361.614L4.058 363.599L4.55797 363.593L4.56403 364.087L4.84964 364.085L4.85345 364.585L6.42 364.573L6.41619 364.073L6.69949 364.071L6.69574 363.579L7.19572 363.575L7.1806 361.59L6.68062 361.594L6.6655 359.61L7.16548 359.606L7.15036 357.621L6.65038 357.625L6.63526 355.64L7.13525 355.636L7.12013 353.652L6.62014 353.655L6.60502 351.671L7.10501 351.667L7.08989 349.682L6.5899 349.686L6.57479 347.701L7.07477 347.698L7.05965 345.713L6.55967 345.717L6.54455 343.732L7.04453 343.728L7.02941 341.744L6.52943 341.747L6.51431 339.763L7.0143 339.759L6.99918 337.774L6.49919 337.778L6.48407 335.793L6.98406 335.79L6.96894 333.805L6.46895 333.809L6.45383 331.824L6.95382 331.82L6.9387 329.835L6.43872 329.839L6.4236 327.855L6.92358 327.851L6.90846 325.866L6.40848 325.87L6.39336 323.885L6.89334 323.881L6.87823 321.897L6.37824 321.901L6.36312 319.916L6.86311 319.912L6.84799 317.927L6.348 317.931L6.33288 315.947L6.83287 315.943L6.81775 313.958L6.31776 313.962L6.30265 311.977L6.80263 311.973L6.78751 309.989L6.28753 309.992L6.27241 308.008L6.77239 308.004L6.75727 306.019L6.25729 306.023L6.24217 304.038L6.74216 304.035L6.72704 302.05L6.22705 302.054L6.21193 300.069L6.71192 300.065L6.6968 298.081L6.19681 298.084L6.18169 296.1L6.68168 296.096L6.66656 294.111L6.16658 294.115L6.15146 292.13L6.65144 292.127L6.63632 290.142L6.13634 290.146L6.12122 288.161L6.62121 288.157L6.60609 286.173L6.1061 286.176L6.09098 284.192L6.59097 284.188L6.57585 282.203L6.07586 282.207L6.06074 280.222L6.56073 280.218L6.54561 278.234L6.04563 278.238L6.03051 276.253L6.53049 276.249L6.51537 274.264L6.01539 274.268L6.00027 272.284L6.50025 272.28L6.48514 270.295L5.98515 270.299L5.97003 268.314L6.47002 268.31L6.4549 266.326L5.95491 266.33L5.93979 264.345L6.43978 264.341L6.42466 262.356L5.92468 262.36L5.90956 260.376L6.40954 260.372L6.39442 258.387L5.89444 258.391L5.87932 256.406L6.3793 256.402L6.36419 254.418L5.8642 254.422L5.84908 252.437L6.34907 252.433L6.33395 250.448L5.83396 250.452L5.81884 248.467L6.31883 248.464L6.30371 246.479L5.80372 246.483L5.78861 244.498L6.28859 244.494L6.27347 242.51L5.77349 242.513L5.75837 240.529L6.25835 240.525L6.24324 238.54L5.74325 238.544L5.72813 236.559L6.22812 236.556L6.213 234.571L5.71301 234.575L5.69789 232.59L6.19788 232.586L6.18276 230.602L5.68277 230.605L5.66766 228.621L6.16764 228.617L6.15252 226.632L5.65254 226.636L5.63742 224.651L6.1374 224.648L6.12228 222.663L5.6223 222.667L5.60718 220.682L6.10717 220.678L6.09205 218.693L5.59206 218.697L5.57694 216.713L6.07693 216.709L6.06181 214.724L5.56182 214.728L5.5467 212.743L6.04669 212.739L6.03157 210.755L5.53159 210.759L5.51647 208.774L6.01645 208.77L6.00133 206.785L5.50135 206.789L5.48623 204.805L5.98621 204.801L5.9711 202.816L5.47111 202.82L5.45599 200.835L5.95598 200.831L5.94086 198.847L5.44087 198.851L5.42575 196.866L5.92574 196.862L5.91062 194.877L5.41064 194.881L5.39552 192.896L5.8955 192.893L5.88038 190.908L5.3804 190.912L5.36528 188.927L5.86526 188.923L5.85015 186.939L5.35016 186.942L5.33504 184.958L5.83503 184.954L5.81991 182.969L5.31992 182.973L5.3048 180.988L5.80479 180.985L5.78967 179L5.28968 179.004L5.28593 178.511L4.78595 178.515L4.78214 178.015L2.7822 178.03L2.78601 178.53L2.28835 178.534Z" stroke="url(#paint9_linear_48_985)" stroke-dasharray="2 2"/>
<path d="M156.493 16.5042L155.997 16.5083L155.993 16.0083L153.993 16.025L153.998 16.525L151.998 16.5417L151.994 16.0417L149.994 16.0583L149.998 16.5583L147.998 16.575L147.994 16.075L145.994 16.0917L145.998 16.5917L143.998 16.6083L143.994 16.1084L141.994 16.125L141.998 16.625L139.998 16.6417L139.994 16.1417L137.994 16.1584L137.999 16.6583L135.999 16.675L135.995 16.175L133.995 16.1917L133.999 16.6917L131.999 16.7083L131.995 16.2084L129.995 16.225L129.999 16.725L127.999 16.7417L127.995 16.2417L125.995 16.2584L125.999 16.7584L124 16.775L123.995 16.275L121.995 16.2917L122 16.7917L120 16.8084L119.996 16.3084L117.996 16.3251L118 16.825L116 16.8417L115.996 16.3417L113.996 16.3584L114 16.8584L112 16.875L111.996 16.3751L109.996 16.3917L110 16.8917L108.001 16.9084L107.996 16.4084L105.997 16.4251L106.001 16.925L104.001 16.9417L103.997 16.4417L101.997 16.4584L102.001 16.9584L100.001 16.9751L99.9969 16.4751L97.997 16.4917L98.0012 16.9917L96.0013 17.0084L95.9972 16.5084L93.9973 16.5251L94.0015 17.0251L92.0016 17.0417L91.9974 16.5418L89.9976 16.5584L90.0017 17.0584L88.0019 17.0751L87.9977 16.5751L85.9978 16.5918L86.002 17.0917L84.0021 17.1084L83.998 16.6084L81.9981 16.6251L82.0023 17.1251L80.0024 17.1417L79.9982 16.6418L77.9984 16.6584L78.0025 17.1584L76.0027 17.1751L75.9985 16.6751L73.9986 16.6918L74.0028 17.1918L72.0029 17.2084L71.9987 16.7084L69.9989 16.7251L70.003 17.2251L68.0032 17.2418L67.999 16.7418L65.9991 16.7585L66.0033 17.2584L64.0034 17.2751L63.9993 16.7751L61.9994 16.7918L62.0036 17.2918L60.0037 17.3084L59.9995 16.8085L57.9997 16.8251L58.0038 17.3251L56.004 17.3418L55.9998 16.8418L53.9999 16.8585L54.0041 17.3585L53.5 17.3627L53.5 17.6501L53 17.6501L53 19.2167L53.5 19.2167L53.5 19.5L53.9999 19.5L53.9999 20L55.9998 20L55.9998 19.5L57.9997 19.5L57.9997 20L59.9995 20L59.9995 19.5L61.9994 19.5L61.9994 20L63.9993 20L63.9993 19.5L65.9991 19.5L65.9991 20L67.999 20L67.999 19.5L69.9989 19.5L69.9989 20L71.9988 20L71.9988 19.5L73.9986 19.5L73.9986 20L75.9985 20L75.9985 19.5L77.9984 19.5L77.9984 20L79.9982 20L79.9982 19.5L81.9981 19.5L81.9981 20L83.998 20L83.998 19.5L85.9978 19.5L85.9978 20L87.9977 20L87.9977 19.5L89.9976 19.5L89.9976 20L91.9975 20L91.9975 19.5L93.9973 19.5L93.9973 20L95.9972 20L95.9972 19.5L97.9971 19.5L97.9971 20L99.9969 20L99.9969 19.5L101.997 19.5L101.997 20L103.997 20L103.997 19.5L105.997 19.5L105.997 20L107.996 20L107.996 19.5L109.996 19.5L109.996 20L111.996 20L111.996 19.5L113.996 19.5L113.996 20L115.996 20L115.996 19.5L117.996 19.5L117.996 20L119.996 20L119.996 19.5L121.995 19.5L121.995 20L123.995 20L123.995 19.5L125.995 19.5L125.995 20L127.995 20L127.995 19.5L129.995 19.5L129.995 20L131.995 20L131.995 19.5L133.995 19.5L133.995 20L135.995 20L135.995 19.5L137.994 19.5L137.994 20L139.994 20L139.994 19.5L141.994 19.5L141.994 20L143.994 20L143.994 19.5L145.994 19.5L145.994 20L147.994 20L147.994 19.5L149.994 19.5L149.994 20L151.993 20L151.993 19.5L153.993 19.5L153.993 20L155.993 20L155.993 19.5L156.493 19.5L156.493 19L156.993 19L156.993 17L156.493 17L156.493 16.5042Z" stroke="url(#paint10_linear_48_985)" stroke-dasharray="2 2"/>
<path d="M163.414 9.07172L164.357 7.57905L164.137 7.13031L164.141 7.12372L163.955 6.7614L163.027 8.28415L163.252 8.72479L163.247 8.73297L163.414 9.07172ZM162.253 10.1101L162.098 9.8069L161.169 11.3296L161.394 11.7703L161.389 11.7785L161.526 12.0571L162.47 10.5644L162.249 10.1157L162.253 10.1101ZM160.365 13.0966L160.24 12.8524L159.311 14.3751L159.536 14.8158L159.531 14.824L159.639 15.0424L160.582 13.5497L160.362 13.101L160.365 13.0966ZM158.926 15.2996L158.946 15.34L158.949 15.3364L158.928 15.2967L158.926 15.2996Z" stroke="url(#paint11_linear_48_985)" stroke-dasharray="2 2"/>
<path d="M410.171 119.764L410.174 120.254L409.674 120.256L409.683 122.241L410.183 122.239L410.192 124.224L409.692 124.226L409.701 126.211L410.201 126.208L410.21 128.193L409.71 128.195L409.72 130.18L410.22 130.178L410.229 132.163L409.729 132.165L409.738 134.15L410.238 134.147L410.247 136.132L409.747 136.134L409.757 138.119L410.257 138.117L410.266 140.101L409.766 140.104L409.775 142.089L410.275 142.086L410.284 144.071L409.784 144.073L409.793 146.058L410.293 146.056L410.303 148.04L409.803 148.043L409.812 150.027L410.312 150.025L410.321 152.01L409.821 152.012L409.83 153.997L410.33 153.995L410.34 155.979L409.84 155.982L409.849 157.966L410.349 157.964L410.358 159.949L409.858 159.951L409.867 161.936L410.367 161.934L410.376 163.918L409.876 163.921L409.886 165.905L410.386 165.903L410.395 167.888L409.895 167.89L409.904 169.875L410.404 169.873L410.413 171.857L409.913 171.86L409.923 173.844L410.423 173.842L410.432 175.827L409.932 175.829L409.941 177.814L410.441 177.811L410.45 179.796L409.95 179.799L409.959 181.783L410.459 181.781L410.469 183.766L409.969 183.768L409.978 185.753L410.478 185.75L410.487 187.735L409.987 187.737L409.996 189.722L410.496 189.72L410.506 191.705L410.006 191.707L410.015 193.692L410.515 193.689L410.524 195.674L410.024 195.676L410.033 197.661L410.533 197.659L410.542 199.644L410.042 199.646L410.052 201.631L410.552 201.628L410.561 203.613L410.061 203.615L410.07 205.6L410.57 205.598L410.579 207.582L410.079 207.585L410.089 209.57L410.589 209.567L410.598 211.552L410.098 211.554L410.107 213.539L410.607 213.537L410.616 215.521L410.116 215.524L410.125 217.508L410.625 217.506L410.635 219.491L410.135 219.493L410.144 221.478L410.644 221.476L410.653 223.46L410.153 223.463L410.162 225.447L410.662 225.445L410.672 227.43L410.172 227.432L410.181 229.417L410.681 229.415L410.69 231.399L410.19 231.402L410.199 233.386L410.699 233.384L410.708 235.369L410.208 235.371L410.218 237.356L410.718 237.353L410.727 239.338L410.227 239.341L410.236 241.325L410.736 241.323L410.745 243.308L410.245 243.31L410.254 245.295L410.754 245.292L410.764 247.277L410.264 247.28L410.273 249.264L410.773 249.262L410.782 251.247L410.282 251.249L410.291 253.234L410.791 253.231L410.801 255.216L410.301 255.218L410.31 257.203L410.81 257.201L410.819 259.186L410.319 259.188L410.328 261.173L410.828 261.17L410.837 263.155L410.337 263.157L410.347 265.142L410.847 265.14L410.856 267.125L410.356 267.127L410.365 269.112L410.865 269.109L410.874 271.094L410.374 271.096L410.384 273.081L410.884 273.079L410.893 275.063L410.393 275.066L410.402 277.051L410.902 277.048L410.911 279.033L410.411 279.035L410.42 281.02L410.92 281.018L410.93 283.002L410.43 283.005L410.439 284.989L410.939 284.987L410.948 286.972L410.448 286.974L410.457 288.959L410.957 288.957L410.967 290.941L410.467 290.944L410.476 292.928L410.976 292.926L410.985 294.911L410.485 294.913L410.494 296.898L410.994 296.896L411.003 298.88L410.503 298.883L410.513 300.867L411.013 300.865L411.022 302.85L410.522 302.852L410.531 304.837L411.031 304.835L411.033 305.329L411.319 305.329L411.319 305.829L412.886 305.829L412.886 305.329L413.169 305.329L413.169 304.837L413.669 304.837L413.669 302.852L413.169 302.852L413.169 300.867L413.669 300.867L413.669 298.883L413.169 298.883L413.169 296.898L413.669 296.898L413.669 294.913L413.169 294.913L413.169 292.928L413.669 292.928L413.669 290.944L413.169 290.944L413.169 288.959L413.669 288.959L413.669 286.974L413.169 286.974L413.169 284.989L413.669 284.989L413.669 283.005L413.169 283.005L413.169 281.02L413.669 281.02L413.669 279.035L413.169 279.035L413.169 277.051L413.669 277.051L413.669 275.066L413.169 275.066L413.169 273.081L413.669 273.081L413.669 271.096L413.169 271.096L413.169 269.112L413.669 269.112L413.669 267.127L413.169 267.127L413.169 265.142L413.669 265.142L413.669 263.157L413.169 263.157L413.169 261.173L413.669 261.173L413.669 259.188L413.169 259.188L413.169 257.203L413.669 257.203L413.669 255.218L413.169 255.218L413.169 253.234L413.669 253.234L413.669 251.249L413.169 251.249L413.169 249.264L413.669 249.264L413.669 247.279L413.169 247.279L413.169 245.295L413.669 245.295L413.669 243.31L413.169 243.31L413.169 241.325L413.669 241.325L413.669 239.34L413.169 239.34L413.169 237.356L413.669 237.356L413.669 235.371L413.169 235.371L413.169 233.386L413.669 233.386L413.669 231.402L413.169 231.402L413.169 229.417L413.669 229.417L413.669 227.432L413.169 227.432L413.169 225.447L413.669 225.447L413.669 223.463L413.169 223.463L413.169 221.478L413.669 221.478L413.669 219.493L413.169 219.493L413.169 217.508L413.669 217.508L413.669 215.524L413.169 215.524L413.169 213.539L413.669 213.539L413.669 211.554L413.169 211.554L413.169 209.569L413.669 209.569L413.669 207.585L413.169 207.585L413.169 205.6L413.669 205.6L413.669 203.615L413.169 203.615L413.169 201.631L413.669 201.631L413.669 199.646L413.169 199.646L413.169 197.661L413.669 197.661L413.669 195.676L413.169 195.676L413.169 193.692L413.669 193.692L413.669 191.707L413.169 191.707L413.169 189.722L413.669 189.722L413.669 187.737L413.169 187.737L413.169 185.753L413.669 185.753L413.669 183.768L413.169 183.768L413.169 181.783L413.669 181.783L413.669 179.798L413.169 179.798L413.169 177.814L413.669 177.814L413.669 175.829L413.169 175.829L413.169 173.844L413.669 173.844L413.669 171.86L413.169 171.86L413.169 169.875L413.669 169.875L413.669 167.89L413.169 167.89L413.169 165.905L413.669 165.905L413.669 163.921L413.169 163.921L413.169 161.936L413.669 161.936L413.669 159.951L413.169 159.951L413.169 157.966L413.669 157.966L413.669 155.982L413.169 155.982L413.169 153.997L413.669 153.997L413.669 152.012L413.169 152.012L413.169 150.027L413.669 150.027L413.669 148.043L413.169 148.043L413.169 146.058L413.669 146.058L413.669 144.073L413.169 144.073L413.169 142.088L413.669 142.088L413.669 140.104L413.169 140.104L413.169 138.119L413.669 138.119L413.669 136.134L413.169 136.134L413.169 134.15L413.669 134.15L413.669 132.165L413.169 132.165L413.169 130.18L413.669 130.18L413.669 128.195L413.169 128.195L413.169 126.211L413.669 126.211L413.669 124.226L413.169 124.226L413.169 122.241L413.669 122.241L413.669 120.256L413.169 120.256L413.169 119.764L412.669 119.764L412.669 119.264L410.669 119.264L410.669 119.764L410.171 119.764Z" stroke="url(#paint12_linear_48_985)" stroke-dasharray="2 2"/>
<path d="M404.375 107.403L405.13 108.23L404.761 108.567L406.284 110.234L406.653 109.897L408.176 111.563L407.807 111.9L409.33 113.567L409.699 113.23L409.705 113.236L410.057 112.926L408.564 111.233L408.189 111.563L406.697 109.87L407.072 109.54L405.579 107.847L405.204 108.177L404.458 107.331L404.375 107.403ZM413.042 116.312L411.55 114.619L411.175 114.949L411.17 114.944L410.852 115.234L412.375 116.9L412.744 116.563L412.75 116.569L413.042 116.312ZM413.3 117.59L413.414 117.489L413.409 117.484L413.297 117.587L413.3 117.59Z" stroke="url(#paint13_linear_48_985)" stroke-dasharray="2 2"/>
<mask id="path-15-inside-2_48_985" fill="white">
<path d="M29 370L126.565 370L126.565 465.749L29 465.749L29 370Z"/>
</mask>
<path d="M29 465.749L25 465.749L25 466.249L29 466.249L29 465.749ZM25 370L25 370.997L33 370.997L33 370L25 370ZM25 372.992L25 374.987L33 374.987L33 372.992L25 372.992ZM25 376.982L25 378.976L33 378.976L33 376.982L25 376.982ZM25 380.971L25 382.966L33 382.966L33 380.971L25 380.971ZM25 384.961L25 386.955L33 386.955L33 384.961L25 384.961ZM25 388.95L25 390.945L33 390.945L33 388.95L25 388.95ZM25 392.94L25 394.935L33 394.935L33 392.94L25 392.94ZM25 396.929L25 398.924L33 398.924L33 396.929L25 396.929ZM25 400.919L25 402.914L33 402.914L33 400.919L25 400.919ZM25 404.908L25 406.903L33 406.903L33 404.908L25 404.908ZM25 408.898L25 410.893L33 410.893L33 408.898L25 408.898ZM25 412.887L25 414.882L33 414.882L33 412.887L25 412.887ZM25 416.877L25 418.872L33 418.872L33 416.877L25 416.877ZM25 420.866L25 422.861L33 422.861L33 420.866L25 420.866ZM25 424.856L25 426.851L33 426.851L33 424.856L25 424.856ZM25 428.846L25 430.84L33 430.84L33 428.846L25 428.846ZM25 432.835L25 434.83L33 434.83L33 432.835L25 432.835ZM25 436.825L25 438.819L33 438.819L33 436.825L25 436.825ZM25 440.814L25 442.809L33 442.809L33 440.814L25 440.814ZM25 444.804L25 446.798L33 446.798L33 444.804L25 444.804ZM25 448.793L25 450.788L33 450.788L33 448.793L25 448.793ZM25 452.783L25 454.778L33 454.778L33 452.783L25 452.783ZM25 456.772L25 458.767L33 458.767L33 456.772L25 456.772ZM25 460.762L25 462.757L33 462.757L33 460.762L25 460.762ZM25 464.751L25 465.749L33 465.749L33 464.751L25 464.751ZM29 466.249L30.0163 466.249L30.0163 465.249L29 465.249L29 466.249ZM32.0489 466.249L34.0815 466.249L34.0815 465.249L32.0489 465.249L32.0489 466.249ZM36.1141 466.249L38.1467 466.249L38.1467 465.249L36.1141 465.249L36.1141 466.249ZM40.1794 466.249L42.212 466.249L42.212 465.249L40.1794 465.249L40.1794 466.249ZM44.2446 466.249L46.2772 466.249L46.2772 465.249L44.2446 465.249L44.2446 466.249ZM48.3098 466.249L50.3424 466.249L50.3424 465.249L48.3098 465.249L48.3098 466.249ZM52.375 466.249L54.4076 466.249L54.4076 465.249L52.375 465.249L52.375 466.249ZM56.4402 466.249L58.4728 466.249L58.4728 465.249L56.4402 465.249L56.4402 466.249ZM60.5054 466.249L62.538 466.249L62.538 465.249L60.5054 465.249L60.5054 466.249ZM64.5707 466.249L66.6033 466.249L66.6033 465.249L64.5707 465.249L64.5707 466.249ZM68.6359 466.249L70.6685 466.249L70.6685 465.249L68.6359 465.249L68.6359 466.249ZM72.7011 466.249L74.7337 466.249L74.7337 465.249L72.7011 465.249L72.7011 466.249ZM76.7663 466.249L78.7989 466.249L78.7989 465.249L76.7663 465.249L76.7663 466.249ZM80.8315 466.249L82.8641 466.249L82.8641 465.249L80.8315 465.249L80.8315 466.249ZM84.8967 466.249L86.9293 466.249L86.9293 465.249L84.8967 465.249L84.8967 466.249ZM88.962 466.249L90.9946 466.249L90.9946 465.249L88.962 465.249L88.962 466.249ZM93.0272 466.249L95.0598 466.249L95.0598 465.249L93.0272 465.249L93.0272 466.249ZM97.0924 466.249L99.125 466.249L99.125 465.249L97.0924 465.249L97.0924 466.249ZM101.158 466.249L103.19 466.249L103.19 465.249L101.158 465.249L101.158 466.249ZM105.223 466.249L107.255 466.249L107.255 465.249L105.223 465.249L105.223 466.249ZM109.288 466.249L111.321 466.249L111.321 465.249L109.288 465.249L109.288 466.249ZM113.353 466.249L115.386 466.249L115.386 465.249L113.353 465.249L113.353 466.249ZM117.418 466.249L119.451 466.249L119.451 465.249L117.418 465.249L117.418 466.249ZM121.484 466.249L123.516 466.249L123.516 465.249L121.484 465.249L121.484 466.249ZM125.549 466.249L126.565 466.249L126.565 465.249L125.549 465.249L125.549 466.249ZM29 465.749L21 465.749L21 466.749L29 466.749L29 465.749ZM21 370L21 370.997L37 370.997L37 370L21 370ZM21 372.992L21 374.987L37 374.987L37 372.992L21 372.992ZM21 376.982L21 378.976L37 378.976L37 376.982L21 376.982ZM21 380.971L21 382.966L37 382.966L37 380.971L21 380.971ZM21 384.961L21 386.955L37 386.955L37 384.961L21 384.961ZM21 388.95L21 390.945L37 390.945L37 388.95L21 388.95ZM21 392.94L21 394.935L37 394.935L37 392.94L21 392.94ZM21 396.929L21 398.924L37 398.924L37 396.929L21 396.929ZM21 400.919L21 402.914L37 402.914L37 400.919L21 400.919ZM21 404.908L21 406.903L37 406.903L37 404.908L21 404.908ZM21 408.898L21 410.893L37 410.893L37 408.898L21 408.898ZM21 412.887L21 414.882L37 414.882L37 412.887L21 412.887ZM21 416.877L21 418.872L37 418.872L37 416.877L21 416.877ZM21 420.866L21 422.861L37 422.861L37 420.866L21 420.866ZM21 424.856L21 426.851L37 426.851L37 424.856L21 424.856ZM21 428.846L21 430.84L37 430.84L37 428.846L21 428.846ZM21 432.835L21 434.83L37 434.83L37 432.835L21 432.835ZM21 436.825L21 438.819L37 438.819L37 436.825L21 436.825ZM21 440.814L21 442.809L37 442.809L37 440.814L21 440.814ZM21 444.804L21 446.798L37 446.798L37 444.804L21 444.804ZM21 448.793L21 450.788L37 450.788L37 448.793L21 448.793ZM21 452.783L21 454.778L37 454.778L37 452.783L21 452.783ZM21 456.772L21 458.767L37 458.767L37 456.772L21 456.772ZM21 460.762L21 462.757L37 462.757L37 460.762L21 460.762ZM21 464.751L21 465.749L37 465.749L37 464.751L21 464.751ZM29 466.749L30.0163 466.749L30.0163 464.749L29 464.749L29 466.749ZM32.0489 466.749L34.0815 466.749L34.0815 464.749L32.0489 464.749L32.0489 466.749ZM36.1141 466.749L38.1467 466.749L38.1467 464.749L36.1141 464.749L36.1141 466.749ZM40.1794 466.749L42.212 466.749L42.212 464.749L40.1794 464.749L40.1794 466.749ZM44.2446 466.749L46.2772 466.749L46.2772 464.749L44.2446 464.749L44.2446 466.749ZM48.3098 466.749L50.3424 466.749L50.3424 464.749L48.3098 464.749L48.3098 466.749ZM52.375 466.749L54.4076 466.749L54.4076 464.749L52.375 464.749L52.375 466.749ZM56.4402 466.749L58.4728 466.749L58.4728 464.749L56.4402 464.749L56.4402 466.749ZM60.5054 466.749L62.538 466.749L62.538 464.749L60.5054 464.749L60.5054 466.749ZM64.5707 466.749L66.6033 466.749L66.6033 464.749L64.5707 464.749L64.5707 466.749ZM68.6359 466.749L70.6685 466.749L70.6685 464.749L68.6359 464.749L68.6359 466.749ZM72.7011 466.749L74.7337 466.749L74.7337 464.749L72.7011 464.749L72.7011 466.749ZM76.7663 466.749L78.7989 466.749L78.7989 464.749L76.7663 464.749L76.7663 466.749ZM80.8315 466.749L82.8641 466.749L82.8641 464.749L80.8315 464.749L80.8315 466.749ZM84.8967 466.749L86.9293 466.749L86.9293 464.749L84.8967 464.749L84.8967 466.749ZM88.962 466.749L90.9946 466.749L90.9946 464.749L88.962 464.749L88.962 466.749ZM93.0272 466.749L95.0598 466.749L95.0598 464.749L93.0272 464.749L93.0272 466.749ZM97.0924 466.749L99.125 466.749L99.125 464.749L97.0924 464.749L97.0924 466.749ZM101.158 466.749L103.19 466.749L103.19 464.749L101.158 464.749L101.158 466.749ZM105.223 466.749L107.255 466.749L107.255 464.749L105.223 464.749L105.223 466.749ZM109.288 466.749L111.321 466.749L111.321 464.749L109.288 464.749L109.288 466.749ZM113.353 466.749L115.386 466.749L115.386 464.749L113.353 464.749L113.353 466.749ZM117.418 466.749L119.451 466.749L119.451 464.749L117.418 464.749L117.418 466.749ZM121.484 466.749L123.516 466.749L123.516 464.749L121.484 464.749L121.484 466.749ZM125.549 466.749L126.565 466.749L126.565 464.749L125.549 464.749L125.549 466.749Z" fill="url(#paint14_linear_48_985)" mask="url(#path-15-inside-2_48_985)"/>
<defs>
<filter id="filter0_d_48_985" x="0" y="1" width="416" height="495.5" filterUnits="userSpaceOnUse" color-interpolation-filters="sRGB">
<feFlood flood-opacity="0" result="BackgroundImageFix"/>
<feColorMatrix in="SourceAlpha" type="matrix" values="0 0 0 0 0 0 0 0 0 0 0 0 0 0 0 0 0 0 127 0" result="hardAlpha"/>
<feOffset dy="4"/>
<feGaussianBlur stdDeviation="6"/>
<feComposite in2="hardAlpha" operator="out"/>
<feColorMatrix type="matrix" values="0 0 0 0 0 0 0 0 0 0 0 0 0 0 0 0 0 0 0.15 0"/>
<feBlend mode="normal" in2="BackgroundImageFix" result="effect1_dropShadow_48_985"/>
<feBlend mode="normal" in="SourceGraphic" in2="effect1_dropShadow_48_985" result="shape"/>
</filter>
<linearGradient id="paint0_linear_48_985" x1="55" y1="42.5" x2="346" y2="466" gradientUnits="userSpaceOnUse">
<stop stop-color="white"/>
<stop offset="0.440054" stop-color="#F0EEFF"/>
</linearGradient>
<linearGradient id="paint1_linear_48_985" x1="208" y1="10" x2="426.5" y2="479" gradientUnits="userSpaceOnUse">
<stop stop-color="#E4C7E4" stop-opacity="0.9425"/>
<stop offset="0.2875" stop-color="#F263F2" stop-opacity="0.9425"/>
<stop offset="0.575" stop-color="#8E7BFF"/>
</linearGradient>
<linearGradient id="paint2_linear_48_985" x1="246.016" y1="486.809" x2="246.75" y2="487.642" gradientUnits="userSpaceOnUse">
<stop stop-color="#310740"/>
<stop offset="1" stop-color="#D160ED"/>
</linearGradient>
<linearGradient id="paint3_linear_48_985" x1="340.783" y1="121.749" x2="340.783" y2="26" gradientUnits="userSpaceOnUse">
<stop stop-color="#310740"/>
<stop offset="1" stop-color="#D160ED"/>
</linearGradient>
<linearGradient id="paint4_linear_48_985" x1="146.283" y1="488" x2="146.283" y2="492" gradientUnits="userSpaceOnUse">
<stop stop-color="#310740"/>
<stop offset="1" stop-color="#D160ED"/>
</linearGradient>
<linearGradient id="paint5_linear_48_985" x1="246.016" y1="486.809" x2="246.75" y2="487.642" gradientUnits="userSpaceOnUse">
<stop stop-color="#310740"/>
<stop offset="1" stop-color="#D160ED"/>
</linearGradient>
<linearGradient id="paint6_linear_48_985" x1="233.283" y1="4.11978" x2="233.283" y2="0.119782" gradientUnits="userSpaceOnUse">
<stop stop-color="#310740"/>
<stop offset="1" stop-color="#D160ED"/>
</linearGradient>
<linearGradient id="paint7_linear_48_985" x1="333.016" y1="5.31065" x2="333.75" y2="4.47796" gradientUnits="userSpaceOnUse">
<stop stop-color="#310740"/>
<stop offset="1" stop-color="#D160ED"/>
</linearGradient>
<linearGradient id="paint8_linear_48_985" x1="6.70128" y1="173.145" x2="7.43541" y2="173.977" gradientUnits="userSpaceOnUse">
<stop stop-color="#310740"/>
<stop offset="1" stop-color="#D160ED"/>
</linearGradient>
<linearGradient id="paint9_linear_48_985" x1="2.49281" y1="271.318" x2="6.4927" y2="271.287" gradientUnits="userSpaceOnUse">
<stop stop-color="#310740"/>
<stop offset="1" stop-color="#D160ED"/>
</linearGradient>
<linearGradient id="paint10_linear_48_985" x1="104.997" y1="16" x2="104.997" y2="20" gradientUnits="userSpaceOnUse">
<stop stop-color="#310740"/>
<stop offset="1" stop-color="#D160ED"/>
</linearGradient>
<linearGradient id="paint11_linear_48_985" x1="161.589" y1="10.4781" x2="162.257" y2="10.9007" gradientUnits="userSpaceOnUse">
<stop stop-color="#310740"/>
<stop offset="1" stop-color="#D160ED"/>
</linearGradient>
<linearGradient id="paint12_linear_48_985" x1="409.669" y1="212.547" x2="413.669" y2="212.547" gradientUnits="userSpaceOnUse">
<stop stop-color="#310740"/>
<stop offset="1" stop-color="#D160ED"/>
</linearGradient>
<linearGradient id="paint13_linear_48_985" x1="408.478" y1="112.813" x2="409.311" y2="112.079" gradientUnits="userSpaceOnUse">
<stop stop-color="#310740"/>
<stop offset="1" stop-color="#D160ED"/>
</linearGradient>
<linearGradient id="paint14_linear_48_985" x1="77.7826" y1="370" x2="77.7826" y2="465.749" gradientUnits="userSpaceOnUse">
<stop stop-color="#310740"/>
<stop offset="1" stop-color="#D160ED"/>
</linearGradient>
</defs>
</svg>
